<svg xmlns="http://www.w3.org/2000/svg" width="1539" height="964" style="cursor: move;"><g transform="translate(-746.1058658255467,-525.0729149212458) scale(2.200220326303789)"><path class="link" marker-end="" d="M609.5,372, 789.5,432" style="stroke-width: 0.5px; stroke-opacity: 1; stroke: rgb(80, 80, 80);"></path><path class="link" marker-end="" d="M609.5,372, 789.5,472" style="stroke-width: 0.5px; stroke-opacity: 1; stroke: rgb(80, 80, 80);"></path><path class="link" marker-end="" d="M609.5,372, 789.5,512" style="stroke-width: 0.5px; stroke-opacity: 1; stroke: rgb(80, 80, 80);"></path><path class="link" marker-end="" d="M609.5,372, 789.5,552" style="stroke-width: 0.5px; stroke-opacity: 1; stroke: rgb(80, 80, 80);"></path><path class="link" marker-end="" d="M609.5,412, 789.5,432" style="stroke-width: 0.5px; stroke-opacity: 1; stroke: rgb(80, 80, 80);"></path><path class="link" marker-end="" d="M609.5,412, 789.5,472" style="stroke-width: 0.5px; stroke-opacity: 1; stroke: rgb(80, 80, 80);"></path><path class="link" marker-end="" d="M609.5,412, 789.5,512" style="stroke-width: 0.5px; stroke-opacity: 1; stroke: rgb(80, 80, 80);"></path><path class="link" marker-end="" d="M609.5,412, 789.5,552" style="stroke-width: 0.5px; stroke-opacity: 1; stroke: rgb(80, 80, 80);"></path><path class="link" marker-end="" d="M609.5,452, 789.5,432" style="stroke-width: 0.5px; stroke-opacity: 1; stroke: rgb(80, 80, 80);"></path><path class="link" marker-end="" d="M609.5,452, 789.5,472" style="stroke-width: 0.5px; stroke-opacity: 1; stroke: rgb(80, 80, 80);"></path><path class="link" marker-end="" d="M609.5,452, 789.5,512" style="stroke-width: 0.5px; stroke-opacity: 1; stroke: rgb(80, 80, 80);"></path><path class="link" marker-end="" d="M609.5,452, 789.5,552" style="stroke-width: 0.5px; stroke-opacity: 1; stroke: rgb(80, 80, 80);"></path><path class="link" marker-end="" d="M609.5,492, 789.5,432" style="stroke-width: 0.5px; stroke-opacity: 1; stroke: rgb(80, 80, 80);"></path><path class="link" marker-end="" d="M609.5,492, 789.5,472" style="stroke-width: 0.5px; stroke-opacity: 1; stroke: rgb(80, 80, 80);"></path><path class="link" marker-end="" d="M609.5,492, 789.5,512" style="stroke-width: 0.5px; stroke-opacity: 1; stroke: rgb(80, 80, 80);"></path><path class="link" marker-end="" d="M609.5,492, 789.5,552" style="stroke-width: 0.5px; stroke-opacity: 1; stroke: rgb(80, 80, 80);"></path><path class="link" marker-end="" d="M609.5,532, 789.5,432" style="stroke-width: 0.5px; stroke-opacity: 1; stroke: rgb(80, 80, 80);"></path><path class="link" marker-end="" d="M609.5,532, 789.5,472" style="stroke-width: 0.5px; stroke-opacity: 1; stroke: rgb(80, 80, 80);"></path><path class="link" marker-end="" d="M609.5,532, 789.5,512" style="stroke-width: 0.5px; stroke-opacity: 1; stroke: rgb(80, 80, 80);"></path><path class="link" marker-end="" d="M609.5,532, 789.5,552" style="stroke-width: 0.5px; stroke-opacity: 1; stroke: rgb(80, 80, 80);"></path><path class="link" marker-end="" d="M609.5,572, 789.5,432" style="stroke-width: 0.5px; stroke-opacity: 1; stroke: rgb(80, 80, 80);"></path><path class="link" marker-end="" d="M609.5,572, 789.5,472" style="stroke-width: 0.5px; stroke-opacity: 1; stroke: rgb(80, 80, 80);"></path><path class="link" marker-end="" d="M609.5,572, 789.5,512" style="stroke-width: 0.5px; stroke-opacity: 1; stroke: rgb(80, 80, 80);"></path><path class="link" marker-end="" d="M609.5,572, 789.5,552" style="stroke-width: 0.5px; stroke-opacity: 1; stroke: rgb(80, 80, 80);"></path><path class="link" marker-end="" d="M789.5,392, 969.5,372" style="stroke-width: 0.5px; stroke-opacity: 1; stroke: rgb(80, 80, 80);"></path><path class="link" marker-end="" d="M789.5,392, 969.5,412" style="stroke-width: 0.5px; stroke-opacity: 1; stroke: rgb(80, 80, 80);"></path><path class="link" marker-end="" d="M789.5,392, 969.5,452" style="stroke-width: 0.5px; stroke-opacity: 1; stroke: rgb(80, 80, 80);"></path><path class="link" marker-end="" d="M789.5,392, 969.5,492" style="stroke-width: 0.5px; stroke-opacity: 1; stroke: rgb(80, 80, 80);"></path><path class="link" marker-end="" d="M789.5,392, 969.5,532" style="stroke-width: 0.5px; stroke-opacity: 1; stroke: rgb(80, 80, 80);"></path><path class="link" marker-end="" d="M789.5,392, 969.5,572" style="stroke-width: 0.5px; stroke-opacity: 1; stroke: rgb(80, 80, 80);"></path><path class="link" marker-end="" d="M789.5,432, 969.5,372" style="stroke-width: 0.5px; stroke-opacity: 1; stroke: rgb(80, 80, 80);"></path><path class="link" marker-end="" d="M789.5,432, 969.5,412" style="stroke-width: 0.5px; stroke-opacity: 1; stroke: rgb(80, 80, 80);"></path><path class="link" marker-end="" d="M789.5,432, 969.5,452" style="stroke-width: 0.5px; stroke-opacity: 1; stroke: rgb(80, 80, 80);"></path><path class="link" marker-end="" d="M789.5,432, 969.5,492" style="stroke-width: 0.5px; stroke-opacity: 1; stroke: rgb(80, 80, 80);"></path><path class="link" marker-end="" d="M789.5,432, 969.5,532" style="stroke-width: 0.5px; stroke-opacity: 1; stroke: rgb(80, 80, 80);"></path><path class="link" marker-end="" d="M789.5,432, 969.5,572" style="stroke-width: 0.5px; stroke-opacity: 1; stroke: rgb(80, 80, 80);"></path><path class="link" marker-end="" d="M789.5,472, 969.5,372" style="stroke-width: 0.5px; stroke-opacity: 1; stroke: rgb(80, 80, 80);"></path><path class="link" marker-end="" d="M789.5,472, 969.5,412" style="stroke-width: 0.5px; stroke-opacity: 1; stroke: rgb(80, 80, 80);"></path><path class="link" marker-end="" d="M789.5,472, 969.5,452" style="stroke-width: 0.5px; stroke-opacity: 1; stroke: rgb(80, 80, 80);"></path><path class="link" marker-end="" d="M789.5,472, 969.5,492" style="stroke-width: 0.5px; stroke-opacity: 1; stroke: rgb(80, 80, 80);"></path><path class="link" marker-end="" d="M789.5,472, 969.5,532" style="stroke-width: 0.5px; stroke-opacity: 1; stroke: rgb(80, 80, 80);"></path><path class="link" marker-end="" d="M789.5,472, 969.5,572" style="stroke-width: 0.5px; stroke-opacity: 1; stroke: rgb(80, 80, 80);"></path><path class="link" marker-end="" d="M789.5,512, 969.5,372" style="stroke-width: 0.5px; stroke-opacity: 1; stroke: rgb(80, 80, 80);"></path><path class="link" marker-end="" d="M789.5,512, 969.5,412" style="stroke-width: 0.5px; stroke-opacity: 1; stroke: rgb(80, 80, 80);"></path><path class="link" marker-end="" d="M789.5,512, 969.5,452" style="stroke-width: 0.5px; stroke-opacity: 1; stroke: rgb(80, 80, 80);"></path><path class="link" marker-end="" d="M789.5,512, 969.5,492" style="stroke-width: 0.5px; stroke-opacity: 1; stroke: rgb(80, 80, 80);"></path><path class="link" marker-end="" d="M789.5,512, 969.5,532" style="stroke-width: 0.5px; stroke-opacity: 1; stroke: rgb(80, 80, 80);"></path><path class="link" marker-end="" d="M789.5,512, 969.5,572" style="stroke-width: 0.5px; stroke-opacity: 1; stroke: rgb(80, 80, 80);"></path><path class="link" marker-end="" d="M789.5,552, 969.5,372" style="stroke-width: 0.5px; stroke-opacity: 1; stroke: rgb(80, 80, 80);"></path><path class="link" marker-end="" d="M789.5,552, 969.5,412" style="stroke-width: 0.5px; stroke-opacity: 1; stroke: rgb(80, 80, 80);"></path><path class="link" marker-end="" d="M789.5,552, 969.5,452" style="stroke-width: 0.5px; stroke-opacity: 1; stroke: rgb(80, 80, 80);"></path><path class="link" marker-end="" d="M789.5,552, 969.5,492" style="stroke-width: 0.5px; stroke-opacity: 1; stroke: rgb(80, 80, 80);"></path><path class="link" marker-end="" d="M789.5,552, 969.5,532" style="stroke-width: 0.5px; stroke-opacity: 1; stroke: rgb(80, 80, 80);"></path><path class="link" marker-end="" d="M789.5,552, 969.5,572" style="stroke-width: 0.5px; stroke-opacity: 1; stroke: rgb(80, 80, 80);"></path><path class="link" marker-end="" d="M609.5,372, 789.5,392" style="stroke-width: 0.5px; stroke-opacity: 1; stroke: rgb(80, 80, 80);"></path><path class="link" marker-end="" d="M609.5,412, 789.5,392" style="stroke-width: 0.5px; stroke-opacity: 1; stroke: rgb(80, 80, 80);"></path><path class="link" marker-end="" d="M609.5,452, 789.5,392" style="stroke-width: 0.5px; stroke-opacity: 1; stroke: rgb(80, 80, 80);"></path><path class="link" marker-end="" d="M609.5,492, 789.5,392" style="stroke-width: 0.5px; stroke-opacity: 1; stroke: rgb(80, 80, 80);"></path><path class="link" marker-end="" d="M609.5,532, 789.5,392" style="stroke-width: 0.5px; stroke-opacity: 1; stroke: rgb(80, 80, 80);"></path><path class="link" marker-end="" d="M609.5,572, 789.5,392" style="stroke-width: 0.5px; stroke-opacity: 1; stroke: rgb(80, 80, 80);"></path><circle r="10" class="node" id="0_0" cx="609.5" cy="372" style="fill: rgb(255, 255, 255); stroke: rgb(51, 51, 51);"></circle><circle r="10" class="node" id="0_1" cx="609.5" cy="412" style="fill: rgb(255, 255, 255); stroke: rgb(51, 51, 51);"></circle><circle r="10" class="node" id="0_2" cx="609.5" cy="452" style="fill: rgb(255, 255, 255); stroke: rgb(51, 51, 51);"></circle><circle r="10" class="node" id="0_3" cx="609.5" cy="492" style="fill: rgb(255, 255, 255); stroke: rgb(51, 51, 51);"></circle><circle r="10" class="node" id="0_4" cx="609.5" cy="532" style="fill: rgb(255, 255, 255); stroke: rgb(51, 51, 51);"></circle><circle r="10" class="node" id="0_5" cx="609.5" cy="572" style="fill: rgb(255, 255, 255); stroke: rgb(51, 51, 51);"></circle><circle r="10" class="node" id="1_0" cx="789.5" cy="392" style="fill: rgb(255, 255, 255); stroke: rgb(51, 51, 51);"></circle><circle r="10" class="node" id="1_1" cx="789.5" cy="432" style="fill: rgb(255, 255, 255); stroke: rgb(51, 51, 51);"></circle><circle r="10" class="node" id="1_2" cx="789.5" cy="472" style="fill: rgb(255, 255, 255); stroke: rgb(51, 51, 51);"></circle><circle r="10" class="node" id="1_3" cx="789.5" cy="512" style="fill: rgb(255, 255, 255); stroke: rgb(51, 51, 51);"></circle><circle r="10" class="node" id="1_4" cx="789.5" cy="552" style="fill: rgb(255, 255, 255); stroke: rgb(51, 51, 51);"></circle><circle r="10" class="node" id="2_0" cx="969.5" cy="372" style="fill: rgb(255, 255, 255); stroke: rgb(51, 51, 51);"></circle><circle r="10" class="node" id="2_1" cx="969.5" cy="412" style="fill: rgb(255, 255, 255); stroke: rgb(51, 51, 51);"></circle><circle r="10" class="node" id="2_2" cx="969.5" cy="452" style="fill: rgb(255, 255, 255); stroke: rgb(51, 51, 51);"></circle><circle r="10" class="node" id="2_3" cx="969.5" cy="492" style="fill: rgb(255, 255, 255); stroke: rgb(51, 51, 51);"></circle><circle r="10" class="node" id="2_4" cx="969.5" cy="532" style="fill: rgb(255, 255, 255); stroke: rgb(51, 51, 51);"></circle><circle r="10" class="node" id="2_5" cx="969.5" cy="572" style="fill: rgb(255, 255, 255); stroke: rgb(51, 51, 51);"></circle><text class="text" dy=".35em" x="574.5" y="612" style="font-size: 12px;"></text><text class="text" dy=".35em" x="754.5" y="612" style="font-size: 12px;"></text><text class="text" dy=".35em" x="934.5" y="612" style="font-size: 12px;"></text></g><defs><marker id="arrow" viewBox="0 -5 10 10" markerWidth="7" markerHeight="7" orient="auto" refX="40"><path d="M0,-5L10,0L0,5" style="stroke: rgb(80, 80, 80); fill: none;"></path></marker></defs></svg>